<svg width="12" height="13" viewBox="0 0 12 13" fill="none" xmlns="http://www.w3.org/2000/svg">
<path d="M5.99616 9.5506C5.90685 9.5506 5.8238 9.53456 5.74699 9.50247C5.67019 9.47053 5.5997 9.42247 5.53553 9.35831L2.98595 6.80872C2.87595 6.69997 2.82171 6.57261 2.82324 6.42664C2.82491 6.28067 2.88276 6.14997 2.99678 6.03456C3.11887 5.91928 3.24984 5.86296 3.3897 5.8656C3.5297 5.86824 3.65741 5.92727 3.77283 6.04268L5.45866 7.74935V0.957682C5.45866 0.803932 5.51012 0.675251 5.61303 0.57164C5.71581 0.46789 5.84345 0.416016 5.99595 0.416016C6.14845 0.416016 6.27755 0.46789 6.38324 0.57164C6.48908 0.675251 6.54199 0.803932 6.54199 0.957682V7.74935L8.24866 6.04268C8.35408 5.93268 8.47928 5.87845 8.62428 5.87997C8.76915 5.88164 8.90262 5.94011 9.0247 6.05539C9.13873 6.17081 9.19442 6.29984 9.19178 6.44247C9.18915 6.58511 9.13012 6.71414 9.0147 6.82956L6.46512 9.35831C6.3954 9.42247 6.32213 9.47053 6.24533 9.50247C6.16852 9.53456 6.08546 9.5506 5.99616 9.5506ZM1.75095 12.5827C1.37553 12.5827 1.05935 12.4532 0.802409 12.1941C0.545464 11.9351 0.416992 11.618 0.416992 11.2429V10.525C0.416992 10.3712 0.468451 10.2425 0.571367 10.1389C0.674145 10.0352 0.801784 9.98331 0.954284 9.98331C1.10678 9.98331 1.23588 10.0352 1.34158 10.1389C1.44741 10.2425 1.50033 10.3712 1.50033 10.525V11.2429C1.50033 11.3071 1.52706 11.3658 1.58053 11.4191C1.63387 11.4726 1.69262 11.4993 1.75678 11.4993H10.2439C10.308 11.4993 10.3668 11.4726 10.4201 11.4191C10.4736 11.3658 10.5003 11.3071 10.5003 11.2429V10.525C10.5003 10.3712 10.5517 10.2425 10.6545 10.1389C10.7574 10.0352 10.8851 9.98331 11.0376 9.98331C11.1901 9.98331 11.3192 10.0352 11.4249 10.1389C11.5307 10.2425 11.5837 10.3712 11.5837 10.525V11.2429C11.5837 11.618 11.4541 11.9351 11.1949 12.1941C10.9357 12.4532 10.6185 12.5827 10.243 12.5827H1.75095Z" fill="currentColor"/>
</svg>
