<svg width="14" height="10" viewBox="0 0 14 10" fill="none" xmlns="http://www.w3.org/2000/svg">
<path d="M5.77428 9.08268C5.62081 9.08268 5.4922 9.03115 5.38845 8.9281C5.28456 8.82504 5.23262 8.6974 5.23262 8.54518C5.23262 8.39282 5.28456 8.26379 5.38845 8.1581C5.4922 8.05227 5.62081 7.99935 5.77428 7.99935H8.21824C8.37172 7.99935 8.5004 8.05088 8.60428 8.15393C8.70803 8.25699 8.75991 8.38463 8.75991 8.53685C8.75991 8.68921 8.70803 8.81824 8.60428 8.92393C8.5004 9.02977 8.37172 9.08268 8.21824 9.08268H5.77428ZM2.87845 5.54102C2.72498 5.54102 2.59637 5.48949 2.49262 5.38643C2.38887 5.28338 2.33699 5.15574 2.33699 5.00352C2.33699 4.85116 2.38887 4.72213 2.49262 4.61643C2.59637 4.5106 2.72498 4.45768 2.87845 4.45768H11.1141C11.2675 4.45768 11.3962 4.50921 11.5001 4.61227C11.6039 4.71532 11.6557 4.84296 11.6557 4.99518C11.6557 5.14754 11.6039 5.27657 11.5001 5.38227C11.3962 5.4881 11.2675 5.54102 11.1141 5.54102H2.87845ZM0.958659 1.99935C0.805187 1.99935 0.676575 1.94782 0.572825 1.84477C0.468937 1.74171 0.416992 1.61407 0.416992 1.46185C0.416992 1.30949 0.468937 1.18046 0.572825 1.07477C0.676575 0.968932 0.805187 0.916016 0.958659 0.916016H13.042C13.1955 0.916016 13.3241 0.967543 13.4278 1.0706C13.5317 1.17365 13.5837 1.30129 13.5837 1.45352C13.5837 1.60588 13.5317 1.7349 13.4278 1.8406C13.3241 1.94643 13.1955 1.99935 13.042 1.99935H0.958659Z" fill="currentColor"/>
</svg>
