<svg width="20" height="20" viewBox="0 0 20 20" fill="none" xmlns="http://www.w3.org/2000/svg">
<path d="M14.9422 9.55781C15.0003 9.61586 15.0464 9.68479 15.0779 9.76066C15.1093 9.83654 15.1255 9.91787 15.1255 10C15.1255 10.0821 15.1093 10.1635 15.0779 10.2393C15.0464 10.3152 15.0003 10.3841 14.9422 10.4422L9.31719 16.0672C9.25912 16.1253 9.19018 16.1713 9.11431 16.2027C9.03844 16.2342 8.95712 16.2503 8.875 16.2503C8.79288 16.2503 8.71156 16.2342 8.63569 16.2027C8.55982 16.1713 8.49088 16.1253 8.43281 16.0672C8.37474 16.0091 8.32868 15.9402 8.29725 15.8643C8.26583 15.7884 8.24965 15.7071 8.24965 15.625C8.24965 15.5429 8.26583 15.4616 8.29725 15.3857C8.32868 15.3098 8.37474 15.2409 8.43281 15.1828L12.9914 10.625H2.625C2.45924 10.625 2.30027 10.5592 2.18306 10.4419C2.06585 10.3247 2 10.1658 2 10C2 9.83424 2.06585 9.67527 2.18306 9.55806C2.30027 9.44085 2.45924 9.375 2.625 9.375H12.9914L8.43281 4.81719C8.31554 4.69991 8.24965 4.54085 8.24965 4.375C8.24965 4.20915 8.31554 4.05009 8.43281 3.93281C8.55009 3.81554 8.70915 3.74965 8.875 3.74965C9.04085 3.74965 9.19991 3.81554 9.31719 3.93281L14.9422 9.55781ZM17 2.5C16.8342 2.5 16.6753 2.56585 16.5581 2.68306C16.4408 2.80027 16.375 2.95924 16.375 3.125V16.875C16.375 17.0408 16.4408 17.1997 16.5581 17.3169C16.6753 17.4342 16.8342 17.5 17 17.5C17.1658 17.5 17.3247 17.4342 17.4419 17.3169C17.5592 17.1997 17.625 17.0408 17.625 16.875V3.125C17.625 2.95924 17.5592 2.80027 17.4419 2.68306C17.3247 2.56585 17.1658 2.5 17 2.5Z" fill="currentColor"/>
</svg>

