<svg width="14" height="14" viewBox="0 0 14 14" fill="none" xmlns="http://www.w3.org/2000/svg">
<path d="M6.10027 9.7333L10.3169 5.5333L9.01693 4.21664L6.10027 7.11664L4.8836 5.91664L3.5836 7.2333L6.10027 9.7333ZM7.00027 13.9666C6.0336 13.9666 5.1281 13.7856 4.28377 13.4236C3.43954 13.0615 2.70116 12.5642 2.0686 11.9316C1.43604 11.2991 0.938711 10.5607 0.5766 9.71647C0.2146 8.87214 0.0335999 7.96664 0.0335999 6.99997C0.0335999 6.02219 0.2146 5.11391 0.5766 4.27514C0.938711 3.43647 1.43604 2.70086 2.0686 2.0683C2.70116 1.43575 3.43954 0.938414 4.28377 0.576303C5.1281 0.214303 6.0336 0.0333023 7.00027 0.0333023C7.97804 0.0333023 8.88632 0.214303 9.7251 0.576303C10.5638 0.938414 11.2994 1.43575 11.9319 2.0683C12.5645 2.70086 13.0618 3.43647 13.4239 4.27514C13.7859 5.11391 13.9669 6.02219 13.9669 6.99997C13.9669 7.96664 13.7859 8.87214 13.4239 9.71647C13.0618 10.5607 12.5645 11.2991 11.9319 11.9316C11.2994 12.5642 10.5638 13.0615 9.7251 13.4236C8.88632 13.7856 7.97804 13.9666 7.00027 13.9666Z" fill="#20B858"/>
</svg>
