<svg width="20" height="20" viewBox="0 0 20 20" fill="none" xmlns="http://www.w3.org/2000/svg">
<path d="M4.21249 2.70452C4.1576 2.64265 4.09098 2.59229 4.01649 2.55636C3.942 2.52043 3.86111 2.49964 3.77852 2.49519C3.69594 2.49075 3.61329 2.50274 3.53537 2.53048C3.45745 2.55821 3.38581 2.60113 3.32461 2.65676C3.2634 2.71238 3.21384 2.7796 3.1788 2.85452C3.14377 2.92944 3.12395 3.01057 3.12049 3.0932C3.11704 3.17584 3.13002 3.25833 3.15869 3.33591C3.18736 3.41349 3.23114 3.48461 3.28749 3.54515L4.08827 4.4264C2.92244 5.66349 2.17371 7.2349 1.94739 8.91964C1.72106 10.6044 2.02853 12.3177 2.82655 13.8186L1.93983 16.4787C1.86638 16.699 1.85572 16.9353 1.90905 17.1613C1.96238 17.3873 2.07758 17.5939 2.24175 17.7581C2.40592 17.9222 2.61256 18.0374 2.83853 18.0908C3.06449 18.1441 3.30084 18.1334 3.52108 18.06L6.18124 17.1733C7.56567 17.9097 9.13365 18.2298 10.696 18.095C12.2583 17.9601 13.7482 17.376 14.9859 16.4131L15.7875 17.2951C15.8424 17.357 15.909 17.4074 15.9835 17.4433C16.058 17.4792 16.1389 17.5 16.2215 17.5045C16.304 17.5089 16.3867 17.4969 16.4646 17.4692C16.5425 17.4415 16.6142 17.3985 16.6754 17.3429C16.7366 17.2873 16.7861 17.2201 16.8212 17.1452C16.8562 17.0702 16.876 16.9891 16.8795 16.9065C16.8829 16.8238 16.87 16.7413 16.8413 16.6638C16.8126 16.5862 16.7688 16.5151 16.7125 16.4545L4.21249 2.70452ZM9.99999 16.8748C8.79138 16.8757 7.60397 16.5574 6.5578 15.9522C6.48115 15.9079 6.39596 15.8804 6.30787 15.8715C6.21979 15.8626 6.13082 15.8725 6.04686 15.9006L3.12499 16.8748L4.09921 13.953C4.12729 13.869 4.13722 13.78 4.12833 13.692C4.11944 13.6039 4.09194 13.5187 4.04765 13.442C3.31534 12.1752 3.00631 10.7078 3.1655 9.25329C3.3247 7.79874 3.94382 6.43293 4.9328 5.35452L14.1406 15.4866C12.9486 16.3882 11.4946 16.8757 9.99999 16.8748ZM18.125 9.99984C18.125 11.3425 17.7927 12.6644 17.1578 13.8475C17.0785 13.9921 16.9453 14.0995 16.7872 14.1464C16.6291 14.1932 16.4588 14.1757 16.3136 14.0975C16.1684 14.0194 16.0599 13.887 16.0118 13.7293C15.9638 13.5715 15.98 13.4011 16.057 13.2553C16.7313 12.0027 17.0005 10.5718 16.8273 9.15984C16.6542 7.74787 16.0474 6.42437 15.0904 5.37179C14.1335 4.31922 12.8736 3.5894 11.4845 3.28294C10.0953 2.97649 8.64533 3.1085 7.33436 3.66077C7.18155 3.72511 7.00944 3.72611 6.8559 3.66355C6.70235 3.60098 6.57995 3.47999 6.51561 3.32718C6.45128 3.17437 6.45028 3.00226 6.51284 2.84872C6.5754 2.69517 6.6964 2.57277 6.84921 2.50843C8.08455 1.98997 9.42888 1.78484 10.7626 1.9113C12.0964 2.03775 13.3782 2.49186 14.4941 3.23324C15.61 3.97463 16.5254 4.9803 17.1589 6.16082C17.7923 7.34133 18.1242 8.6601 18.125 9.99984Z" fill="currentColor"/>
</svg>

