<svg width="20" height="20" viewBox="0 0 20 20" fill="none" xmlns="http://www.w3.org/2000/svg">
  <path
    d="M6.25 2.91667H13.75C15.5909 2.91667 17.0833 4.40905 17.0833 6.25V13.75C17.0833 15.5909 15.5909 17.0833 13.75 17.0833H6.25C4.40905 17.0833 2.91667 15.5909 2.91667 13.75V6.25C2.91667 4.40905 4.40905 2.91667 6.25 2.91667Z"
    stroke="currentColor"
    stroke-width="1.5"
    stroke-linecap="round"
    stroke-linejoin="round"
  />
  <path
    d="M13.9583 6.04167H13.9667"
    stroke="currentColor"
    stroke-width="2"
    stroke-linecap="round"
    stroke-linejoin="round"
  />
  <path
    d="M10 13.125C11.7259 13.125 13.125 11.7259 13.125 10C13.125 8.27411 11.7259 6.875 10 6.875C8.27411 6.875 6.875 8.27411 6.875 10C6.875 11.7259 8.27411 13.125 10 13.125Z"
    stroke="currentColor"
    stroke-width="1.5"
    stroke-linecap="round"
    stroke-linejoin="round"
  />
</svg>
