<svg width="20" height="20" viewBox="0 0 20 20" fill="none" xmlns="http://www.w3.org/2000/svg">
<path d="M19.125 15.2534H18.5V5.40179L19.2555 5.23929C19.3375 5.22392 19.4155 5.19228 19.4851 5.14625C19.5547 5.10022 19.6144 5.04072 19.6606 4.97127C19.7068 4.90182 19.7386 4.82382 19.7542 4.74187C19.7698 4.65992 19.7689 4.57567 19.7514 4.4941C19.7339 4.41253 19.7003 4.33528 19.6525 4.26691C19.6047 4.19853 19.5437 4.14042 19.4731 4.096C19.4025 4.05157 19.3237 4.02173 19.2414 4.00824C19.159 3.99474 19.0749 3.99786 18.9938 4.01742L1.49375 7.76742C1.34299 7.79995 1.20958 7.88708 1.11918 8.01205C1.02879 8.13701 0.987791 8.29099 1.00408 8.44436C1.02037 8.59773 1.09279 8.73966 1.20741 8.84285C1.32203 8.94605 1.47077 9.00321 1.625 9.00336C1.66938 9.00328 1.71363 8.99856 1.75703 8.98929L2.25 8.88383V15.2534H1.625C1.45924 15.2534 1.30027 15.3192 1.18306 15.4364C1.06585 15.5536 1 15.7126 1 15.8784C1 16.0441 1.06585 16.2031 1.18306 16.3203C1.30027 16.4375 1.45924 16.5034 1.625 16.5034H19.125C19.2908 16.5034 19.4497 16.4375 19.5669 16.3203C19.6842 16.2031 19.75 16.0441 19.75 15.8784C19.75 15.7126 19.6842 15.5536 19.5669 15.4364C19.4497 15.3192 19.2908 15.2534 19.125 15.2534ZM3.5 8.61273L17.25 5.66976V15.2534H15.375V10.8784C15.375 10.7126 15.3092 10.5536 15.1919 10.4364C15.0747 10.3192 14.9158 10.2534 14.75 10.2534H6C5.83424 10.2534 5.67527 10.3192 5.55806 10.4364C5.44085 10.5536 5.375 10.7126 5.375 10.8784V15.2534H3.5V8.61273ZM14.125 12.7534H6.625V11.5034H14.125V12.7534ZM6.625 14.0034H14.125V15.2534H6.625V14.0034Z" fill="currentColor"/>
</svg>

