<svg width="14" height="14" viewBox="0 0 14 14" fill="none" xmlns="http://www.w3.org/2000/svg">
<path d="M3.79987 7.98336H10.1999V6.01669H3.79987V7.98336ZM7.00454 13.9667C6.03476 13.9667 5.1277 13.7857 4.28337 13.4237C3.43915 13.0616 2.70076 12.5642 2.0682 11.9317C1.43565 11.2991 0.938314 10.561 0.576203 9.71719C0.214203 8.8733 0.0332031 7.96502 0.0332031 6.99236C0.0332031 6.01969 0.214203 5.11397 0.576203 4.27519C0.938314 3.43652 1.43565 2.70091 2.0682 2.06836C2.70076 1.4358 3.43893 0.938467 4.2827 0.576356C5.12659 0.214356 6.03487 0.0333557 7.00754 0.0333557C7.9802 0.0333557 8.88593 0.214356 9.7247 0.576356C10.5634 0.938467 11.299 1.4358 11.9315 2.06836C12.5641 2.70091 13.0614 3.4378 13.4235 4.27902C13.7855 5.12024 13.9665 6.02569 13.9665 6.99536C13.9665 7.96513 13.7855 8.87219 13.4235 9.71652C13.0614 10.5607 12.5641 11.2991 11.9315 11.9317C11.299 12.5642 10.5621 13.0616 9.72087 13.4237C8.87965 13.7857 7.9742 13.9667 7.00454 13.9667Z" fill="#FFC001"/>
</svg>
