<svg width="16" height="17" viewBox="0 0 16 17" fill="none" xmlns="http://www.w3.org/2000/svg">
<path d="M7.99933 13.8332H13.9993M10.9167 2.91449C11.1821 2.6491 11.542 2.5 11.9173 2.5C12.2927 2.5 12.6526 2.6491 12.918 2.91449C13.1834 3.17988 13.3325 3.53983 13.3325 3.91516C13.3325 4.29048 13.1834 4.65043 12.918 4.91582L4.91133 12.9232C4.75273 13.0818 4.55668 13.1978 4.34133 13.2605L2.42667 13.8192C2.3693 13.8359 2.30849 13.8369 2.25061 13.8221C2.19272 13.8072 2.13988 13.7771 2.09763 13.7349C2.05538 13.6926 2.02526 13.6398 2.01043 13.5819C1.9956 13.524 1.9966 13.4632 2.01333 13.4058L2.572 11.4912C2.63481 11.276 2.75083 11.0802 2.90933 10.9218L10.9167 2.91449Z" stroke="currentColor" stroke-linecap="round" stroke-linejoin="round"/>
</svg>
