<svg width="20" height="20" viewBox="0 0 20 20" fill="none" xmlns="http://www.w3.org/2000/svg">
<path d="M9.99942 6.25C9.25774 6.25 8.53271 6.46993 7.91603 6.88198C7.29934 7.29404 6.8187 7.87971 6.53487 8.56493C6.25104 9.25016 6.17678 10.0042 6.32147 10.7316C6.46617 11.459 6.82332 12.1272 7.34777 12.6516C7.87221 13.1761 8.5404 13.5332 9.26783 13.6779C9.99526 13.8226 10.7493 13.7484 11.4345 13.4645C12.1197 13.1807 12.7054 12.7001 13.1174 12.0834C13.5295 11.4667 13.7494 10.7417 13.7494 10C13.7484 9.00575 13.353 8.05252 12.6499 7.34949C11.9469 6.64645 10.9937 6.25103 9.99942 6.25ZM9.99942 12.5C9.50496 12.5 9.02161 12.3534 8.61049 12.0787C8.19937 11.804 7.87894 11.4135 7.68972 10.9567C7.5005 10.4999 7.45099 9.99722 7.54745 9.51227C7.64392 9.02732 7.88202 8.58186 8.23165 8.23223C8.58128 7.8826 9.02674 7.6445 9.51169 7.54803C9.99664 7.45157 10.4993 7.50108 10.9561 7.6903C11.4129 7.87952 11.8034 8.19995 12.0781 8.61107C12.3528 9.02219 12.4994 9.50554 12.4994 10C12.4994 10.663 12.236 11.2989 11.7672 11.7678C11.2983 12.2366 10.6625 12.5 9.99942 12.5ZM18.5885 8.37578C18.5711 8.28777 18.5349 8.20453 18.4825 8.13174C18.43 8.05894 18.3625 7.99829 18.2846 7.9539L15.9541 6.62578L15.9447 3.99921C15.9444 3.90876 15.9245 3.81944 15.8864 3.73743C15.8482 3.65542 15.7927 3.58267 15.7236 3.52421C14.8783 2.80913 13.9048 2.26114 12.8549 1.90937C12.7722 1.88139 12.6846 1.87103 12.5977 1.87897C12.5107 1.88691 12.4264 1.91297 12.3502 1.95546L9.99942 3.26953L7.64629 1.95312C7.57 1.91038 7.4856 1.88413 7.39853 1.87605C7.31146 1.86798 7.22367 1.87826 7.14082 1.90625C6.09172 2.26059 5.11933 2.81067 4.2752 3.52734C4.20627 3.58571 4.15081 3.65833 4.11264 3.7402C4.07447 3.82206 4.0545 3.91123 4.0541 4.00156L4.04239 6.63046L1.71192 7.95859C1.63395 8.00298 1.56645 8.06363 1.51401 8.13642C1.46157 8.20922 1.42542 8.29245 1.40801 8.38046C1.19473 9.45225 1.19473 10.5556 1.40801 11.6273C1.42542 11.7154 1.46157 11.7986 1.51401 11.8714C1.56645 11.9442 1.63395 12.0048 1.71192 12.0492L4.04239 13.3773L4.05176 16.0039C4.05204 16.0944 4.07196 16.1837 4.11013 16.2657C4.1483 16.3477 4.20382 16.4204 4.27285 16.4789C5.11822 17.194 6.09173 17.742 7.1416 18.0937C7.22428 18.1217 7.3119 18.1321 7.39883 18.1241C7.48575 18.1162 7.57005 18.0902 7.64629 18.0477L9.99942 16.7305L12.3525 18.0469C12.4457 18.0988 12.5506 18.1257 12.6572 18.125C12.7255 18.125 12.7933 18.1139 12.858 18.0922C13.907 17.7383 14.8794 17.1888 15.7236 16.4727C15.7926 16.4143 15.848 16.3417 15.8862 16.2598C15.9244 16.1779 15.9443 16.0888 15.9447 15.9984L15.9564 13.3695L18.2869 12.0414C18.3649 11.997 18.4324 11.9364 18.4848 11.8636C18.5373 11.7908 18.5734 11.7075 18.5908 11.6195C18.8029 10.5486 18.8021 9.4464 18.5885 8.37578ZM17.4166 11.1031L15.1846 12.3727C15.0868 12.4283 15.0058 12.5092 14.9502 12.607C14.9049 12.6852 14.8572 12.768 14.8088 12.8461C14.7468 12.9446 14.7138 13.0586 14.7135 13.175L14.7018 15.6945C14.1018 16.1657 13.4334 16.5424 12.7197 16.8117L10.4682 15.557C10.3747 15.5053 10.2695 15.4784 10.1627 15.4789H10.1479C10.0533 15.4789 9.95801 15.4789 9.86348 15.4789C9.75167 15.4761 9.64113 15.5031 9.54317 15.557L7.29004 16.8148C6.57481 16.5476 5.90459 16.1727 5.30254 15.7031L5.29395 13.1875C5.29356 13.0709 5.26055 12.9567 5.19864 12.8578C5.1502 12.7797 5.10254 12.7016 5.05801 12.6187C5.00279 12.5194 4.92183 12.4369 4.82364 12.3797L2.58926 11.107C2.47363 10.3756 2.47363 9.63061 2.58926 8.89921L4.81738 7.62734C4.91518 7.57173 4.99615 7.49076 5.05176 7.39296C5.09707 7.31484 5.14473 7.23203 5.19317 7.1539C5.25517 7.05538 5.2882 6.9414 5.28848 6.825L5.3002 4.30546C5.90014 3.83433 6.56853 3.45759 7.28223 3.18828L9.53067 4.44296C9.62852 4.49721 9.73914 4.52419 9.85098 4.52109C9.94551 4.52109 10.0408 4.52109 10.1354 4.52109C10.2472 4.52388 10.3577 4.49692 10.4557 4.44296L12.7088 3.18515C13.424 3.4524 14.0942 3.82729 14.6963 4.29687L14.7049 6.81249C14.7053 6.92913 14.7383 7.04333 14.8002 7.14218C14.8486 7.22031 14.8963 7.29843 14.9408 7.38125C14.996 7.48055 15.077 7.56314 15.1752 7.62031L17.4096 8.89296C17.5267 9.62492 17.5281 10.3708 17.4135 11.1031H17.4166Z" fill="currentColor"/>
</svg>

