<svg width="14" height="14" viewBox="0 0 14 14" fill="none" xmlns="http://www.w3.org/2000/svg">
<path d="M4.8332 10.2L6.99987 8.03335L9.16654 10.2L10.1999 9.16668L8.0332 7.00002L10.1999 4.83335L9.16654 3.80001L6.99987 5.96668L4.8332 3.80001L3.79987 4.83335L5.96654 7.00002L3.79987 9.16668L4.8332 10.2ZM6.99987 13.9667C6.0332 13.9667 5.1277 13.7857 4.28337 13.4237C3.43915 13.0616 2.70076 12.5642 2.0682 11.9317C1.43565 11.2991 0.938314 10.5607 0.576203 9.71651C0.214203 8.87218 0.0332031 7.96668 0.0332031 7.00002C0.0332031 6.02224 0.214203 5.11396 0.576203 4.27518C0.938314 3.43651 1.43565 2.7009 2.0682 2.06835C2.70076 1.43579 3.43915 0.93846 4.28337 0.576348C5.1277 0.214348 6.0332 0.0333481 6.99987 0.0333481C7.97765 0.0333481 8.88593 0.214348 9.7247 0.576348C10.5634 0.93846 11.299 1.43579 11.9315 2.06835C12.5641 2.7009 13.0614 3.43651 13.4235 4.27518C13.7855 5.11396 13.9665 6.02224 13.9665 7.00002C13.9665 7.96668 13.7855 8.87218 13.4235 9.71651C13.0614 10.5607 12.5641 11.2991 11.9315 11.9317C11.299 12.5642 10.5634 13.0616 9.7247 13.4237C8.88593 13.7857 7.97765 13.9667 6.99987 13.9667Z" fill="currentColor"/>
</svg>

